<?xml version="1.0" encoding="UTF-8"?>
<svg id="Capa_1" xmlns="http://www.w3.org/2000/svg" version="1.1" xmlns:xlink="http://www.w3.org/1999/xlink" viewBox="0 0 27 32">
  <!-- Generator: Adobe Illustrator 29.0.1, SVG Export Plug-In . SVG Version: 2.1.0 Build 192)  -->
  <defs>
    <style>
      .st0 {
        fill: url(#Degradado_sin_nombre);
      }
    </style>
    <linearGradient id="Degradado_sin_nombre" data-name="Degradado sin nombre" x1="-2.1" y1="4.6" x2="29.3" y2="30.8" gradientTransform="translate(0 34) scale(1 -1)" gradientUnits="userSpaceOnUse">
      <stop offset="0" stop-color="#3cff00"/>
      <stop offset="1" stop-color="#00fff2"/>
    </linearGradient>
  </defs>
  <path class="st0" d="M10.7,9.6c0,.6-.5,1.1-1.1,1.1H1.1C.5,10.6,0,11.1,0,11.7v8.6C0,20.9.5,21.3,1.1,21.3c5.3,0,9.6-4.3,9.6-9.6h0c0-.6.6-1,1.1-.9,2.4.4,4.2,2.7,4.2,5.2s-1.8,4.8-4.3,5.2c-.6.1-1.1.6-1.1,1.3v8.2c0,.7.6,1.3,1.4,1.3,8.2-.7,14.6-7.6,14.6-16S20.2.7,12,0c-.7,0-1.4.5-1.4,1.3v8.3h0Z"/>
</svg>