<?xml version="1.0" encoding="UTF-8"?>
<svg id="Capa_1" xmlns="http://www.w3.org/2000/svg" version="1.1" xmlns:xlink="http://www.w3.org/1999/xlink" viewBox="0 0 220 32">
  <!-- Generator: Adobe Illustrator 29.0.1, SVG Export Plug-In . SVG Version: 2.1.0 Build 192)  -->
  <defs>
    <style>
      .st0 {
        fill: #fff;
      }

      .st1 {
        fill: url(#Degradado_sin_nombre);
      }

      .st2 {
        opacity: .5;
      }
    </style>
    <linearGradient id="Degradado_sin_nombre" data-name="Degradado sin nombre" x1="-2.1" y1="4.5" x2="29.3" y2="30.8" gradientTransform="translate(0 34) scale(1 -1)" gradientUnits="userSpaceOnUse">
      <stop offset="0" stop-color="#3cff00"/>
      <stop offset="1" stop-color="#00fff2"/>
    </linearGradient>
  </defs>
  <path class="st1" d="M10.7,9.6c0,.6-.5,1.1-1.1,1.1H1.1c-.6,0-1.1.5-1.1,1.1v8.6c0,.6.5,1.1,1.1,1.1,5.3,0,9.6-4.3,9.6-9.6h0c0-.6.6-1,1.1-.9,2.4.4,4.2,2.7,4.2,5.2s-1.8,4.8-4.3,5.2c-.6.1-1.1.6-1.1,1.3v8.2c0,.7.6,1.3,1.4,1.3,8.2-.7,14.6-7.6,14.6-16S20.2.7,12,0c-.7,0-1.4.5-1.4,1.3v8.3h0Z"/>
  <g>
    <path class="st0" d="M34.2,16.3c0-2.1.5-3.8,1.5-5.1,1-1.3,2.3-2,3.9-2s3.4,1,4.3,2.9c0,.2.2.3.4.3h1.3c-.5-.7-.8-1.5-1.1-2.2-.2-.8-.4-1.8-.4-3.2v-2.4c0-.3.2-.5.5-.5h2.4c.3,0,.5.2.5.5v17.8c0,.3-.2.5-.5.5h-2c-.3,0-.5-.3-.5-.5.1-.6.5-1.4,1.1-2.2h-1.2c-.2,0-.3.1-.4.3-.4.9-.9,1.6-1.5,2.1-.6.6-1.6.8-2.8.8s-2.9-.7-3.9-2c-1-1.3-1.5-3-1.5-5.1ZM44.3,16.3c0-1.4-.3-2.6-.9-3.3s-1.4-1.2-2.5-1.2c-2.2,0-3.3,1.5-3.3,4.5s1.1,4.5,3.3,4.5,1.8-.4,2.5-1.2c.6-.8.9-1.9.9-3.4Z"/>
    <path class="st0" d="M60.2,9.6h2.4c.3,0,.5.3.4.6l-5.2,14.8c-.4,1.1-.9,2-1.5,2.5-.6.5-1.5.7-2.7.7h-3c-.3,0-.5-.2-.5-.5v-1.8c0-.3.2-.5.5-.5h2.7c.5,0,.9-.1,1.1-.3.3-.2.5-.6.7-1.1l.3-1c0-.1,0-.2,0-.3l-5.8-12.4c-.1-.3,0-.6.4-.6h2.6c.2,0,.3.1.4.3l2.3,5.5c.5,1,.7,2.4.8,4.1,0,.2.2.4.5.4h.4c.2,0,.4-.2.5-.4,0-1,0-1.7.1-2.1,0-.8.2-1.4.5-2.1l1.8-5.4c0-.2.2-.3.4-.3h0Z"/>
    <path class="st0" d="M65.8,22.5v-12.4c0-.3.2-.5.5-.5h2c.3,0,.5.3.4.6-.2.7-.6,1.6-1.2,2.5h1.2c.2,0,.4-.1.4-.3.3-.9.8-1.6,1.4-2.2.7-.7,1.6-1,2.6-1,1.5,0,2.6.4,3.4,1.3.8.9,1.2,2.1,1.2,3.6v8.3c0,.3-.2.5-.5.5h-2.4c-.3,0-.5-.2-.5-.5v-7.7c0-1.9-.8-2.9-2.4-2.9s-1.6.3-2.1.8c-.7.8-1,2.2-1,4.1v5.7c0,.3-.2.5-.5.5h-2.4c-.3,0-.5-.2-.5-.5h0Z"/>
    <path class="st0" d="M80.8,19.5c0-1.7.8-3,2.3-3.7,1.5-.8,3.5-1.3,6.1-1.6v-.5c0-1.4-.8-2.1-2.4-2.1s-2.6.6-3,1.8c0,.2-.3.4-.5.3l-2.1-.6c-.2,0-.4-.3-.3-.5.2-.9.8-1.7,1.8-2.4,1.1-.8,2.5-1.2,4.3-1.2s3.2.4,4.2,1.3c1,.8,1.5,2.1,1.5,3.7v5.4c0,.3,0,.6.1.7,0,0,.3.1.7.1h1.3v2.1c0,.3-.2.5-.5.5h-.9c-1.1,0-1.8-.2-2.2-.6-.4-.4-.6-1.1-.6-2.2h-.8c-.2,0-.4.1-.4.3-.3.8-.8,1.5-1.4,2-.7.6-1.6.9-2.6.9s-2.3-.3-3.1-1c-.8-.7-1.2-1.6-1.2-2.8h0ZM89.2,17.5v-1.1c-1.7.2-2.9.5-3.8.9-.8.4-1.3,1.1-1.3,1.9s.2,1,.5,1.2c.4.3.8.4,1.5.4s1.6-.3,2.2-.9c.6-.6.9-1.4.9-2.5h0Z"/>
    <path class="st0" d="M96.6,22.5v-12.4c0-.3.2-.5.5-.5h1.9c.3,0,.5.3.5.5-.1.7-.4,1.4-1,2.2h1.2c.2,0,.4-.1.4-.3.6-1.9,1.8-2.8,3.5-2.8s1.7.3,2.3.8c.7.5,1.1,1.3,1.3,2.3h.8c.2,0,.4-.1.4-.3.5-1.3,1.3-2.2,2.6-2.7,0,0,0,0,.1,0,1.8-.3,3.2.2,4.2,1.3.8.9,1.2,2.1,1.2,3.7v8.3c0,.3-.2.5-.5.5h-2.3c-.3,0-.5-.2-.5-.5v-7.7c0-1.9-.8-2.9-2.4-2.9s-1.5.2-1.9.7c-.4.4-.6,1-.7,1.5-.1.6-.2,1.3-.2,2.2v6.1c0,.3-.2.5-.5.5h-2.3c-.3,0-.5-.2-.5-.5v-7.7c0-1.9-.8-2.9-2.4-2.9s-1.4.2-1.8.7c-.6.7-.9,2-.9,3.7v6.1c0,.3-.2.5-.5.5h-2.4c-.3,0-.5-.2-.5-.5h0Z"/>
    <path class="st0" d="M120.4,7.1v-2.4c0-.3.2-.5.5-.5h2.6c.3,0,.5.2.5.5v2.4c0,.3-.2.5-.5.5h-2.6c-.3,0-.5-.2-.5-.5ZM120.6,22.5v-12.4c0-.3.2-.5.5-.5h2.3c.3,0,.5.2.5.5v12.4c0,.3-.2.5-.5.5h-2.3c-.3,0-.5-.2-.5-.5Z"/>
    <path class="st0" d="M126.8,16.3c0-2.1.7-3.8,2-5.1,1.3-1.3,2.9-2,4.9-2s2.8.4,3.8,1.1c.9.6,1.6,1.4,2,2.4.1.2,0,.5-.3.6l-2.1.8c-.2,0-.5,0-.6-.3-.6-1.3-1.6-2-3-2s-1.8.4-2.5,1.2c-.6.8-1,1.8-1,3.2,0,2.3.8,3.7,2.5,4.3,0,0,0,0,.1,0,1.9.3,3.3-.4,4-2.2,0-.2.3-.4.6-.3l2.2.8c.2,0,.4.4.3.6-.5,1.1-1.2,2-2.2,2.7-1.1.8-2.4,1.2-3.9,1.2s-3.7-.7-4.9-2c-1.3-1.3-1.9-3-1.9-5.1h0Z"/>
    <g class="st2">
      <path class="st0" d="M143,19.4l2.2-.7c.2,0,.5,0,.6.3.4,1.3,1.5,1.9,3.1,1.9s1.3-.1,1.8-.4c.4-.3.6-.6.6-1.1s-.1-.8-.4-1c-.3-.3-.8-.5-1.5-.6l-1.8-.3c-1.5-.3-2.5-.8-3.3-1.3-.7-.6-1.1-1.5-1.1-2.7s.5-2.2,1.5-3c1-.8,2.3-1.2,3.9-1.2s2.7.3,3.6.9c.8.5,1.4,1.1,1.7,1.9.1.2,0,.5-.2.6l-1.9.8c-.2,0-.5,0-.6-.2-.5-1.1-1.5-1.6-2.7-1.6s-1.2.1-1.6.4c-.4.3-.6.6-.6,1.1s.1.7.4.9c.3.2.8.4,1.6.6l1.7.3c1.3.2,2.3.7,3.2,1.3,1.2.9,1.6,2.3,1.2,4.2,0,0,0,.1,0,.1-1,1.8-2.9,2.8-5.7,2.8s-2.8-.3-4-1c-1-.6-1.7-1.4-2-2.3,0-.2,0-.5.3-.6h0Z"/>
      <path class="st0" d="M158.4,19.6v-6.9c0-.3-.2-.5-.5-.5h-2c-.3,0-.5-.2-.5-.5v-1.6c0-.3.2-.5.5-.5h2c.3,0,.5-.2.5-.5v-3.3c0-.3.2-.5.5-.5h2.4c.3,0,.5.2.5.5v3.3c0,.3.2.5.5.5h2.6c.3,0,.5.2.5.5v1.6c0,.3-.2.5-.5.5h-2.6c-.3,0-.5.2-.5.5v7.2c0,.3.2.5.5.5h3.2c.3,0,.5.2.5.5v1.8c0,.3-.2.5-.5.5h-3.5c-1.1,0-1.9-.3-2.5-.9-.6-.6-.9-1.4-.9-2.5h0Z"/>
      <path class="st0" d="M168.2,18.5v-8.4c0-.3.2-.5.5-.5h2.4c.3,0,.5.2.5.5v7.7c0,1.9.8,2.9,2.3,2.9s1.9-.5,2.4-1.4c.4-.9.7-2,.7-3.4v-5.8c0-.3.2-.5.5-.5h2.4c.3,0,.5.2.5.5v12.4c0,.3-.2.5-.5.5h-2.1c-.3,0-.5-.3-.5-.5.1-.7.5-1.6,1.2-2.5h-1.2c-.2,0-.4.1-.4.3-.8,2.1-2.2,3.2-4.1,3.2s-2.4-.4-3.2-1.3c-.8-.9-1.1-2-1.1-3.5h0Z"/>
      <path class="st0" d="M183.1,16.3c0-2.1.5-3.8,1.5-5.1,1-1.3,2.3-2,3.9-2s3.4,1,4.3,2.9c0,.2.2.3.4.3h1.3c-.5-.7-.8-1.5-1.1-2.2-.2-.8-.4-1.8-.4-3.2v-2.4c0-.3.2-.5.5-.5h2.4c.3,0,.5.2.5.5v17.8c0,.3-.2.5-.5.5h-2c-.3,0-.5-.3-.5-.5.1-.6.5-1.4,1.1-2.2h-1.2c-.2,0-.3.1-.4.3-.4.9-.9,1.6-1.5,2.1-.6.6-1.6.8-2.8.8s-2.9-.7-3.9-2c-1-1.3-1.5-3-1.5-5.1ZM193.2,16.3c0-1.4-.3-2.6-.9-3.3-.6-.8-1.4-1.2-2.5-1.2-2.2,0-3.3,1.5-3.3,4.5s1.1,4.5,3.3,4.5,1.8-.4,2.5-1.2c.6-.8.9-1.9.9-3.4Z"/>
      <path class="st0" d="M200.1,7.1v-2.4c0-.3.2-.5.5-.5h2.6c.3,0,.5.2.5.5v2.4c0,.3-.2.5-.5.5h-2.6c-.3,0-.5-.2-.5-.5ZM200.3,22.5v-12.4c0-.3.2-.5.5-.5h2.3c.3,0,.5.2.5.5v12.4c0,.3-.2.5-.5.5h-2.3c-.3,0-.5-.2-.5-.5Z"/>
      <path class="st0" d="M206.5,16.3c0-2.1.6-3.8,1.9-5.1,1.3-1.3,2.9-2,4.8-2s3.6.7,4.8,2c1.3,1.3,1.9,3,1.9,5.1s-.6,3.8-1.9,5.1c-1.3,1.3-2.9,2-4.8,2s-3.5-.7-4.8-2c-1.3-1.3-1.9-3-1.9-5.1h0ZM216.6,16.3c0-2.3-.8-3.8-2.4-4.4,0,0,0,0-.1,0-1.4-.2-2.5.1-3.3,1.1-.6.8-.9,1.9-.9,3.3s.3,2.5.9,3.2c.6.8,1.4,1.1,2.5,1.1s1.9-.4,2.5-1.1c.6-.8.9-1.8.9-3.2h0Z"/>
    </g>
  </g>
</svg>